PathFileType	4	(X/Y/Z)	pose_F01_0-92.trc
DataRate	CameraRate	NumFrames	NumMarkers	Units	OrigDataRate	OrigDataStartFrame	OrigNumFrames
30	30	8	21	m	30	34	92
Frame#	Time	CHip			RHip			RKnee			RAnkle			RBigToe			RSmallToe			RHeel			LHip			LKnee			LAnkle			LBigToe			LSmallToe			LHeel			Neck			Nose			RShoulder			RElbow			RWrist			LShoulder			LElbow			LWrist			
		X1	Y1	Z1	X2	Y2	Z2	X3	Y3	Z3	X4	Y4	Z4	X5	Y5	Z5	X6	Y6	Z6	X7	Y7	Z7	X8	Y8	Z8	X9	Y9	Z9	X10	Y10	Z10	X11	Y11	Z11	X12	Y12	Z12	X13	Y13	Z13	X14	Y14	Z14	X15	Y15	Z15	X16	Y16	Z16	X17	Y17	Z17	X18	Y18	Z18	X19	Y19	Z19	X20	Y20	Z20	X21	Y21	Z21	
34	1.1333333333333333	-0.1929880802095455	1.9021392170402884	-0.5589024995605149	-0.2090953254143225	1.9004886022716736	-0.502134473608624	-0.21643645634969882	1.7396384915364207	-0.46815646330878335	-0.19217484628224255	1.601807065392978	-0.41107263976794595										-0.1736900344997895	1.904090681315627	-0.6179520728249582	-0.18037713518120474	1.7426960998571954	-0.6043904989570356	-0.1567140495946046	1.597550653673541	-0.5905019684575423	-0.1834256810581443	1.5449138753689091	-0.5989334951654307	-0.16868550510179786	1.5545218708982285	-0.6232923186271101	-0.1462711774381775	1.5912450004629488	-0.5704364066601041	-0.17761276800229023	2.07161500313685	-0.584982420970148	-0.2137025092784581	2.1333837753600933	-0.6023774033916331	-0.19735031390015997	2.0688770649742985	-0.5058572961730771	-0.25342155506776015	2.0194389949637706	-0.4755535210666018	-0.2511697160037929	2.0900037024767295	-0.5201417389286321	-0.15407923479993474	2.077379326374709	-0.6582525022935031	-0.18949428766977683	2.0223966304469987	-0.6933816573425672	-0.1995248973775725	2.0967310202153477	-0.6759119416326773
35	1.1666666666666667	-0.19418939086277798	1.9009120233625882	-0.5531196424479032	-0.20526431660040165	1.9001630411859085	-0.48897355178780166	-0.21464104474901574	1.7387866043521047	-0.46107069155469954	-0.19217484628224255	1.601807065392978	-0.41107263976794595										-0.17501739788563703	1.9026705421390548	-0.6123033457703198	-0.1788777593886903	1.7449475130427536	-0.5979013256908108	-0.1586046343609258	1.5986720455439374	-0.5887437341199663	-0.18174891666682025	1.5448770299059122	-0.6052617001568122	-0.16913120722398176	1.555118208205437	-0.6272480898667573	-0.15022796572538288	1.5919454760594238	-0.5663970370868753	-0.17812731405437193	2.0722886763272426	-0.5687277157119253	-0.2128281016204621	2.13455670786199	-0.6000644321586848	-0.19746867520002942	2.0704379858897117	-0.4900446654733037	-0.25060578586042576	2.021764356558726	-0.4754073175608555	-0.24938662742965673	2.0898933677145184	-0.5148195934266837	-0.15618630803082142	2.0785265437411433	-0.6562517968963073	-0.1900971218997722	2.0218751318028545	-0.6853437862572164	-0.19651297982199992	2.0930647304089613	-0.6736443320086087
36	1.2	-0.1915552572355691	1.9020202667705532	-0.5436914879385095	-0.2064628361643368	1.900143948627123	-0.4835659036996662	-0.21435428144676003	1.7395253188740285	-0.4525405793313077	-0.19217484628224255	1.601807065392978	-0.41107263976794595										-0.17422719214727425	1.9039796285389687	-0.6092810121257757	-0.17786090780172248	1.7475205943746521	-0.594998022946564	-0.15912715355413312	1.5961199590686324	-0.5876484971175796	-0.18302417005923927	1.544952236203716	-0.5998864283897802	-0.16931540533027936	1.5555854096665402	-0.6271663224060003	-0.14958656870116105	1.5898383525614501	-0.5706015835184658	-0.17810290006370874	2.074778195653938	-0.5695349574505769	-0.21375681396513477	2.1333095588150965	-0.5931805053283276	-0.19364101917166524	2.0717673566911405	-0.486671806086989	-0.251443015083133	2.0232306696274898	-0.47013080700548376	-0.24434299241679122	2.0909228748580446	-0.515844333501648	-0.1566379990125597	2.0788261561935397	-0.6487286768177194	-0.19487495528653415	2.0217053389373234	-0.6722686506199869	-0.19649036388010913	2.1027424292878805	-0.6668202211867041
37	1.2333333333333334	-0.19163112355506218	1.901717801180328	-0.5349283221849429	-0.20525817617971054	1.89978737925815	-0.48005178312139324	-0.21348080448507475	1.7381667203042432	-0.4487466426030176	-0.19217484628224255	1.601807065392978	-0.41107263976794595										-0.17277041765696696	1.9036089501545959	-0.594194286659028	-0.17694788327964314	1.750120406712166	-0.5920224483521073	-0.161545935443714	1.5984845675399206	-0.5897602238976402	-0.18314638429529825	1.5463093782480224	-0.5995396770924438	-0.16937106396696572	1.555938662069521	-0.6271088016530311	-0.1493911979659619	1.5910975031892962	-0.5713364935356178	-0.1771950713264431	2.0733485889215295	-0.5657831474475034	-0.21208197457515757	2.13202389240051	-0.5872022711180795	-0.19357440848250143	2.0717195923283027	-0.48643317034120237	-0.2551850534856625	2.0259982901653277	-0.47415045655335647	-0.2422253275095942	2.0952584806146715	-0.5105989352505067	-0.1524218179400931	2.076881993204481	-0.632695008189224	-0.19394164229714997	2.0265373834048646	-0.6697427224398322	-0.19249306324291546	2.10075863561942	-0.6517741516308255
38	1.2666666666666666	-0.18728809810787211	1.906468531385158	-0.5311055433426852	-0.20208167168965377	1.9037236816809895	-0.47944457596628504	-0.21000382103415502	1.7422527447933236	-0.4485713792643189	-0.19217484628224255	1.601807065392978	-0.41107263976794595										-0.1704366359466985	1.908083750985101	-0.5879823614717287	-0.17311565495907502	1.7565483050109671	-0.5922852462822328	-0.15861945599548669	1.602272037475547	-0.5936083254089224	-0.1822619628671278	1.550292074298831	-0.601395495986485	-0.16899751132827728	1.5627965794271723	-0.6288257821540333	-0.1522369409955639	1.5946155004128488	-0.5690686336693366	-0.1756049025552907	2.072672871146608	-0.5511902776815281	-0.20929877376523204	2.1304178576127173	-0.5774008088674231	-0.19265865359863482	2.072749698135238	-0.48384497128439524	-0.25598373899694393	2.029755330836823	-0.47773989791575955	-0.24131127027438753	2.0963354282813005	-0.5080528761741574	-0.15279441967165652	2.0752359778027003	-0.6237239825393093	-0.19735769151153715	2.03357099925127	-0.6637179438737656	-0.1946177419268916	2.1046573020954806	-0.6517154713259965
39	1.3	-0.18541862579525303	1.9052534797328222	-0.5245511840554299	-0.19720251145879966	1.9036907025367067	-0.4718767062368921	-0.20712646115475838	1.7380126960678988	-0.4466782080401623	-0.19217484628224255	1.601807065392978	-0.41107263976794595										-0.16670044450472504	1.9071336335272318	-0.583844394154421	-0.16897966211107054	1.7502185901496996	-0.5833677214557612	-0.1559196727259667	1.602860812218133	-0.5789482852478012	-0.17990131066536072	1.551969379834924	-0.5990551725055354	-0.16609857104916168	1.5622174220329594	-0.6189742708054168	-0.15024792211056112	1.5920619008228936	-0.5660924752893922	-0.17576085153450324	2.072426449011239	-0.542683879152263	-0.21036985969890384	2.126284181124004	-0.5711956376164801	-0.19172388600895005	2.0734747195882988	-0.48059340756311125	-0.25387855410657734	2.0335817104165437	-0.48044847442780264	-0.23497825939967726	2.1051482459089077	-0.5074264368530477	-0.15412821842345112	2.075018320288313	-0.6188432165977692	-0.1998335379462997	2.0330990896893733	-0.652425323693563	-0.19596334495788312	2.1007156246037213	-0.6462386892458114
40	1.3333333333333333	-0.18114709655168063	1.8975452712363094	-0.5160009207476411	-0.19378333062537703	1.8943972103426008	-0.45747430889946555	-0.20569441764271232	1.734905116676099	-0.4480006914775564	-0.19217484628224255	1.601807065392978	-0.41107263976794595										-0.16434290597987708	1.900765693902635	-0.5822328928881049	-0.1727174948959363	1.7423739154295883	-0.5868755427843821	-0.14213350453354767	1.6004985546069757	-0.5584256014053223	-0.16245099329231136	1.5610031058111586	-0.5964321145571942	-0.1478323594221787	1.566927668894865	-0.616691349697898	-0.13963319854968723	1.5921537117488025	-0.5380176209457511	-0.17390285432544705	2.068887304304426	-0.544514762637753	-0.20863103395456	2.120328299364773	-0.5736190871819868	-0.19087044739184522	2.06413035311787	-0.47548047338364946	-0.25388569502809594	2.029752253597459	-0.4794575240277386	-0.23538814345344714	2.095773167256415	-0.5063172392712786	-0.15305499253003174	2.072677043856545	-0.624420103013217	-0.2006745172164803	2.023844309375531	-0.6434962911439353	-0.19487454729158357	2.1021611687800874	-0.6406162156663234
41	1.3666666666666667	-0.17318365811448597	1.883108310240717	-0.5137079249439426	-0.1906203846377211	1.8800266499103142	-0.4538355678547529	-0.20169984668223526	1.724359800914503	-0.4557604259599673	-0.19217484628224255	1.601807065392978	-0.41107263976794595										-0.1593938347861206	1.8851501709247869	-0.5721121388958085	-0.17034115050803328	1.7368177667227587	-0.588697990904171	-0.12701689722347656	1.6064208013923118	-0.5448635671439033	-0.14236325579189268	1.5674945769754043	-0.5883739801234154	-0.12606571191131682	1.57635969084625	-0.6024584441110779	-0.1225201776277593	1.5956379374281144	-0.5260746553265292	-0.17124509813640784	2.0511319602841844	-0.539800304599704	-0.20618811003512716	2.1089266725187725	-0.5713242482925871	-0.1901095727013374	2.0500063206218146	-0.4770121155261218	-0.24911429021211265	2.011786614327382	-0.4763986090644411	-0.23370850526188908	2.08316405277383	-0.5043449108680065	-0.14896607209175872	2.0535192638167357	-0.6049798538911187	-0.19493090755250564	2.0122280351814696	-0.6404595059854546	-0.19700146630317228	2.09290599206711	-0.6194801162632786
